<svg xmlns="http://www.w3.org/2000/svg" xmlns:xlink="http://www.w3.org/1999/xlink" fill="none" version="1.1" width="18" height="18" viewBox="0 0 18 18"><defs><clipPath id="master_svg0_1412_2830"><rect x="0" y="0" width="18" height="18" rx="0"/></clipPath></defs><g clip-path="url(#master_svg0_1412_2830)"><g><rect x="0" y="0" width="18" height="18" rx="0" fill="#FFFFFF" fill-opacity="0.009999999776482582"/></g><g><path d="M16.8303,4.833869L16.830399999999997,4.8338Q16.8313,4.832955,16.8321,4.832107Q16.9728,4.691455,17.0489,4.507683Q17.125,4.323912,17.125,4.1250000000000355Q17.125,3.926712,17.049300000000002,3.743426Q16.9737,3.560141,16.8338,3.419594Q16.833,3.418742,16.8321,3.417893Q16.6919,3.277682,16.5088,3.20158Q16.325699999999998,3.125478,16.1274,3.125003L16.127200000000002,3.125003L16.1253,3.125L16.125,3.125Q15.9267,3.125,15.7434,3.200662Q15.5601,3.276325,15.4196,3.4162L15.4195,3.416269L6.32813,12.46416L2.580631,8.7346L2.58041,8.73438Q2.4398619999999998,8.5945,2.256576,8.51884Q2.073289,8.44318,1.8750000000000109,8.44318L1.87260264,8.44318Q1.673691,8.443660000000001,1.490103,8.52022Q1.306515,8.596779999999999,1.1662,8.737770000000001Q1.026325,8.878309999999999,0.950662,9.0616Q0.875,9.24489,0.875,9.44318L0.875,9.4438L0.875001,9.44464L0.875003,9.44557Q0.87548,9.64448,0.952041,9.82807Q1.028601,10.01166,1.16959,10.15198L1.1698119999999999,10.1522L5.62272,14.5838Q5.69231,14.6531,5.77405,14.7075Q5.85579,14.7619,5.94655,14.7993Q6.03731,14.8368,6.13362,14.8559Q6.22994,14.875,6.32812,14.875Q6.42631,14.875,6.52263,14.8559Q6.61894,14.8368,6.7097,14.7993Q6.80046,14.7619,6.8822,14.7075Q6.96394,14.6531,7.03353,14.5838L16.8303,4.833869Z" fill-rule="evenodd" fill="#8FC31F" fill-opacity="1"/></g></g></svg>