<svg xmlns="http://www.w3.org/2000/svg" xmlns:xlink="http://www.w3.org/1999/xlink" fill="none" version="1.1" width="24" height="24" viewBox="0 0 24 24"><defs><clipPath id="master_svg0_1_834"><rect x="0" y="0" width="24" height="24" rx="0"/></clipPath></defs><g clip-path="url(#master_svg0_1_834)"><g><rect x="0" y="0" width="24" height="24" rx="0" fill="#FFFFFF" fill-opacity="0.009999999776482582"/></g><g><path d="M3.5,21.75L21.5,21.75Q21.5739,21.75,21.6463,21.735589Q21.7188,21.721178,21.787,21.69291Q21.8553,21.664641,21.9167,21.623601999999998Q21.9781,21.582563,22.0303,21.53033Q22.0826,21.478096999999998,22.1236,21.416678Q22.1646,21.355258,22.1929,21.287013Q22.2212,21.218767,22.2356,21.146318Q22.25,21.0738685,22.25,21Q22.25,20.9261315,22.2356,20.853682Q22.2212,20.781233,22.1929,20.712987Q22.1646,20.644742,22.1236,20.583322Q22.0826,20.521903000000002,22.0303,20.46967Q21.9781,20.417437,21.9167,20.376398000000002Q21.8553,20.335359,21.787,20.30709Q21.7188,20.278822,21.6463,20.264411Q21.5739,20.25,21.5,20.25L3.5,20.25Q3.4261315,20.25,3.353682,20.264411Q3.281233,20.278822,3.212987,20.30709Q3.144742,20.335359,3.083322,20.376398000000002Q3.021903,20.417437,2.96967,20.46967Q2.917437,20.521903000000002,2.876398,20.583322Q2.835359,20.644742,2.80709,20.712987Q2.778822,20.781233,2.764411,20.853682Q2.75,20.9261315,2.75,21Q2.75,21.0738685,2.764411,21.146318Q2.778822,21.218767,2.80709,21.287013Q2.835359,21.355258,2.876398,21.416678Q2.917437,21.478096999999998,2.96967,21.53033Q3.021903,21.582563,3.083322,21.623601999999998Q3.144742,21.664641,3.212987,21.69291Q3.281233,21.721178,3.353682,21.735589Q3.4261315,21.75,3.5,21.75Z" fill-rule="evenodd" fill="#91BF25" fill-opacity="1"/></g><g><path d="M15.31734,2.469554L15.3169,2.469988L4.969352,12.82994Q4.864009,12.93541,4.807004,13.0731Q4.75,13.2109,4.75,13.36L4.75,17Q4.75,17.073900000000002,4.764411,17.1463Q4.778822,17.2188,4.80709,17.287Q4.835359,17.3553,4.876398,17.4167Q4.917437,17.478099999999998,4.96967,17.5303Q5.021903,17.5826,5.083322,17.6236Q5.144742,17.6646,5.212987,17.6929Q5.281233,17.7212,5.353682,17.735599999999998Q5.4261315,17.75,5.5,17.75L9.1586,17.75Q9.30783,17.75,9.445689999999999,17.6929Q9.583549999999999,17.6358,9.68905,17.5302L20.0304,7.18426Q20.082700000000003,7.13203,20.1237,7.07062Q20.1647,7.00922,20.1929,6.94099Q20.2212,6.8727599999999995,20.235599999999998,6.800330000000001Q20.25,6.7279,20.25,6.65405Q20.25,6.5802,20.235599999999998,6.50777Q20.2212,6.43534,20.1929,6.36711Q20.1647,6.2988800000000005,20.1237,6.23747Q20.082700000000003,6.17607,20.0304,6.1238399999999995L16.378,2.469786Q16.3258,2.417542,16.264400000000002,2.376489Q16.203,2.3354369999999998,16.134700000000002,2.307153Q16.066499999999998,2.27887,15.994,2.264443Q15.9216,2.250016,15.8477,2.25Q15.7738,2.249984,15.7014,2.264379Q15.6289,2.278774,15.5607,2.307028Q15.49244,2.335281,15.43101,2.3763069999999997Q15.36958,2.417332,15.31734,2.469554ZM15.8478,4.06109L6.25,13.6703L6.25,16.25L8.84784,16.25L18.4396,6.65405L15.8478,4.06109Z" fill-rule="evenodd" fill="#91BF25" fill-opacity="1"/></g></g></svg>