<svg xmlns="http://www.w3.org/2000/svg" xmlns:xlink="http://www.w3.org/1999/xlink" fill="none" version="1.1" width="44" height="44" viewBox="0 0 44 44"><defs><clipPath id="master_svg0_75_5416"><rect x="0" y="0" width="44" height="44" rx="0"/></clipPath></defs><g clip-path="url(#master_svg0_75_5416)"><g><path d="M27.0980224609375,14.97479203125C27.0969052309375,16.10187203125,28.0099044609375,17.01641203125,29.1369724609375,17.01753203125C30.2640524609375,17.01865203125,31.1785924609375,16.10560203125,31.1794524609375,14.97875203125L31.1794524609375,14.97479203125C31.1794524609375,13.847741031249999,30.2657924609375,12.93408203125,29.1387424609375,12.93408203125C28.0116824609375,12.93408203125,27.0980250835375,13.847741031249999,27.0980224609375,14.97479203125Z" fill="#000000" fill-opacity="0.6000000238418579"/></g><g><path d="M6.1297607421875,37.7571419921875L6.1297607421875,30.0565419921875L17.4615607421875,18.7245419921875L17.4347607421875,18.5903419921875C17.301060742187502,17.9224419921875,17.2335607421875,17.2430419921875,17.2331607421875,16.5619419921875C17.2331607421875,10.8720619921875,21.8621607421875,6.2430419921875,27.5520607421875,6.2430419921875C33.2414607421875,6.2430419921875,37.870060742187505,10.8720619921875,37.870060742187505,16.5617419921875C37.870060742187505,22.2511419921875,33.2414607421875,26.8797419921875,27.5520607421875,26.8797419921875C26.4559607421875,26.8797419921875,25.3745607421875,26.7061419921875,24.3352607421875,26.3638419921875L23.9997607421875,26.2531419921875L23.9997607421875,26.3598419921875L22.7375607421875,26.3598419921875L22.7375607421875,30.0805419921875L19.063760742187497,30.0805419921875L19.063760742187497,33.8004419921875L15.3434207421875,33.8004419921875L15.3434207421875,37.7567419921875L6.1297607421875,37.7567419921875L6.1297607421875,37.7571419921875ZM27.5520607421875,8.481711992187499C23.0966607421875,8.481711992187499,19.471860742187502,12.106431992187499,19.471860742187502,16.5616419921875C19.4717607421875,17.1652419921875,19.539160742187498,17.766941992187498,19.6727607421875,18.3555419921875C19.8377607421875,19.0817419921875,19.7040607421875,19.6487419921875,19.2637607421875,20.088641992187497L8.3685207421875,30.9833419921875L8.3685207421875,35.518441992187505L13.1042307421875,35.518441992187505L13.1042307421875,31.5622419921875L16.8246607421875,31.5622419921875L16.8246607421875,27.8422419921875L20.4981607421875,27.8422419921875L20.4981607421875,24.6069419921875C20.9289607421875,24.4744419921875,22.092360742187502,24.1501419921875,23.1401607421875,24.1501419921875C23.4699607421875,24.1501419921875,23.7616607421875,24.1822419921875,24.0071607421875,24.2463419921875C25.5062607421875,24.6352419921875,27.4686607421875,24.6414419921875,27.5513607421875,24.6414419921875C32.0066607421875,24.6414419921875,35.631160742187504,21.016941992187498,35.631160742187504,16.5619419921875C35.6315607421875,12.1062619921875,32.007060742187505,8.481751992187501,27.5520607421875,8.481751992187501L27.5520607421875,8.481711992187499Z" fill="#000000" fill-opacity="0.6000000238418579"/></g></g></svg>