<svg xmlns="http://www.w3.org/2000/svg" xmlns:xlink="http://www.w3.org/1999/xlink" fill="none" version="1.1" width="18" height="18" viewBox="0 0 18 18"><defs><clipPath id="master_svg0_1_0025"><rect x="0" y="0" width="18" height="18" rx="0"/></clipPath></defs><g clip-path="url(#master_svg0_1_0025)"><g><rect x="0" y="0" width="18" height="18" rx="0" fill="#FFFFFF" fill-opacity="0.009999999776482582"/></g><g><path d="M12.75,9L4.25,9Q3.73223,9,3.36612,9.366119999999999Q3,9.73223,3,10.25L3,14.5Q3,15.0178,3.36612,15.3839Q3.73223,15.75,4.25,15.75L13.75,15.75Q14.2678,15.75,14.6339,15.3839Q15,15.0178,15,14.5L15,10.25Q15,9.73223,14.6339,9.366119999999999Q14.2678,9,13.75,9L12.75,9ZM12,5.25L12,7.5L6,7.5L6,5.25Q6,4.00736,6.87869,3.12868Q7.75737,2.25,9,2.25Q10.24263,2.25,11.12132,3.12868Q12,4.00736,12,5.25ZM4.5,7.5L4.5,5.25Q4.5,3.38604,5.81803,2.068018Q7.13605,0.75,9,0.75Q10.86395,0.75,12.18197,2.068018Q13.5,3.38604,13.5,5.25L13.5,7.5L13.75,7.5Q14.8891,7.5,15.6945,8.30546Q16.5,9.11091,16.5,10.25L16.5,14.5Q16.5,15.6391,15.6945,16.444499999999998Q14.8891,17.25,13.75,17.25L4.25,17.25Q3.110914,17.25,2.3054564,16.444499999999998Q1.5,15.6391,1.5,14.5L1.5,10.25Q1.5,9.11091,2.3054564,8.30546Q3.110912,7.5,4.25,7.5L4.5,7.5Z" fill-rule="evenodd" fill="#000000" fill-opacity="0.6000000238418579"/></g><g><path d="M8.25,11.25L8.25,13.5Q8.25,13.57387,8.264410999999999,13.64632Q8.278822,13.71877,8.30709,13.78701Q8.335359,13.85526,8.376398,13.91668Q8.417437,13.9781,8.46967,14.03033Q8.521903,14.08256,8.583322,14.1236Q8.644742,14.16464,8.712987,14.19291Q8.781233,14.22118,8.853682,14.23559Q8.9261315,14.25,9,14.25Q9.0738685,14.25,9.146318,14.23559Q9.218767,14.22118,9.287013,14.19291Q9.355258,14.16464,9.416678,14.1236Q9.478097,14.08256,9.53033,14.03033Q9.582563,13.9781,9.623602,13.91668Q9.664641,13.85526,9.69291,13.78701Q9.721178,13.71877,9.735589000000001,13.64632Q9.75,13.57387,9.75,13.5L9.75,11.25Q9.75,11.1761315,9.735589000000001,11.103682Q9.721178,11.031233,9.69291,10.962987Q9.664641,10.894742,9.623602,10.833322Q9.582563,10.771903,9.53033,10.71967Q9.478097,10.667437,9.416678,10.626398Q9.355258,10.585359,9.287013,10.55709Q9.218767,10.528822,9.146318,10.514410999999999Q9.0738685,10.5,9,10.5Q8.9261315,10.5,8.853682,10.514410999999999Q8.781233,10.528822,8.712987,10.55709Q8.644742,10.585359,8.583322,10.626398Q8.521903,10.667437,8.46967,10.71967Q8.417437,10.771903,8.376398,10.833322Q8.335359,10.894742,8.30709,10.962987Q8.278822,11.031233,8.264410999999999,11.103682Q8.25,11.1761315,8.25,11.25Z" fill-rule="evenodd" fill="#000000" fill-opacity="0.6000000238418579"/></g></g></svg>