<svg xmlns="http://www.w3.org/2000/svg" xmlns:xlink="http://www.w3.org/1999/xlink" fill="none" version="1.1" width="24" height="24" viewBox="0 0 24 24"><defs><clipPath id="master_svg0_1_0052"><rect x="0" y="0" width="24" height="24" rx="0"/></clipPath></defs><g clip-path="url(#master_svg0_1_0052)"><g><rect x="0" y="0" width="24" height="24" rx="0" fill="#FFFFFF" fill-opacity="0.009999999776482582"/></g><g><path d="M1,5L1,19Q1,19.0985,1.019215,19.1951Q1.03843,19.2917,1.076121,19.3827Q1.113812,19.4737,1.16853,19.5556Q1.223249,19.6375,1.2928929999999998,19.7071Q1.362537,19.776699999999998,1.44443,19.8315Q1.526322,19.886200000000002,1.617317,19.9239Q1.7083110000000001,19.9616,1.80491,19.980800000000002Q1.9015086,20,2,20L18,20Q18.0985,20,18.1951,19.980800000000002Q18.2917,19.9616,18.3827,19.9239Q18.4737,19.886200000000002,18.5556,19.8315Q18.6375,19.776699999999998,18.7071,19.7071Q18.7767,19.6375,18.8315,19.5556Q18.8862,19.4737,18.9239,19.3827Q18.9616,19.2917,18.9808,19.1951Q19,19.0985,19,19L19,15.7772L21.3551,17.7643Q21.4304,17.8278,21.5166,17.8754Q21.6028,17.923000000000002,21.6967,17.9529Q21.7905,17.982799999999997,21.8884,17.9938Q21.9863,18.0047,22.0844,17.9964Q22.1826,17.9881,22.2772,17.9608Q22.3718,17.933500000000002,22.4593,17.8883Q22.5468,17.843,22.6238,17.781599999999997Q22.7008,17.720100000000002,22.7643,17.6449Q22.8785,17.5096,22.9392,17.3433Q23,17.177,23,17L23,7Q23,6.90151,22.9808,6.80491Q22.9616,6.70831,22.9239,6.61732Q22.8862,6.52632,22.8315,6.4444300000000005Q22.7767,6.36254,22.7071,6.29289Q22.6375,6.22325,22.5556,6.1685300000000005Q22.4737,6.11381,22.3827,6.0761199999999995Q22.2917,6.03843,22.1951,6.01921Q22.0985,6,22,6Q21.823,6,21.6567,6.06077Q21.4904,6.12155,21.3551,6.23571L19,8.222850000000001L19,5Q19,4.9015086,18.9808,4.80491Q18.9616,4.708311,18.9239,4.617317Q18.8862,4.526322,18.8315,4.44443Q18.7767,4.362537,18.7071,4.292893Q18.6375,4.223249,18.5556,4.16853Q18.4737,4.113812,18.3827,4.076121Q18.2917,4.03843,18.1951,4.019215Q18.0985,4,18,4L2,4Q1.9015086,4,1.80491,4.019215Q1.7083110000000001,4.03843,1.617317,4.076121Q1.526322,4.113812,1.44443,4.16853Q1.362537,4.223249,1.2928929999999998,4.292893Q1.223249,4.362537,1.16853,4.44443Q1.113812,4.526322,1.076121,4.617317Q1.03843,4.708311,1.019215,4.80491Q1,4.9015086,1,5ZM19,10.839649999999999L19,13.16035L21,14.84785L21,9.152149999999999L19,10.839649999999999ZM17,10.375L17,6L3,6L3,18L17,18L17,10.375Z" fill-rule="evenodd" fill="#000000" fill-opacity="0.6000000238418579"/></g></g></svg>