<svg xmlns="http://www.w3.org/2000/svg" xmlns:xlink="http://www.w3.org/1999/xlink" fill="none" version="1.1" width="24" height="24" viewBox="0 0 24 24"><defs><clipPath id="master_svg0_1_0061"><rect x="0" y="0" width="24" height="24" rx="0"/></clipPath></defs><g clip-path="url(#master_svg0_1_0061)"><g><rect x="0" y="0" width="24" height="23.510204315185547" rx="0" fill="#FFFFFF" fill-opacity="0.009999999776482582"/></g><g><path d="M24,0.4897918701171875L0,0.4897918701171875L0,23.99999187011719L24,23.99999187011719L24,0.4897918701171875Z" fill="#FFFFFF" fill-opacity="0.009999999776482582"/></g><g><path d="M2,4.533372739257812L2,9.809972739257812Q2,14.300782739257812,4.67953,17.94178273925781Q7.35463,21.576782739257812,11.69109,22.99168273925781Q11.84229,23.041082739257813,12.00134,23.041082739257813Q12.16039,23.041082739257813,12.31159,22.99168273925781Q16.646900000000002,21.576682739257812,19.3213,17.942382739257813Q22,14.302182739257812,22,9.812422739257812L22,4.533372739257812Q22,4.452442739257812,21.987,4.372562739257813Q21.974,4.292682739257812,21.9483,4.215942739257812Q21.9226,4.139192739257812,21.8849,4.067582739257812Q21.8472,3.9959627392578123,21.7985,3.931342739257812Q21.7498,3.8667227392578125,21.6913,3.8107727392578123Q21.6328,3.7548327392578127,21.5661,3.7090127392578127Q21.4994,3.6632027392578124,21.4261,3.6287127392578125Q21.3529,3.594232739257812,21.2751,3.5719627392578124L12.27942,0.9977717392578125Q12.00443,0.9190827392578125,11.72943,0.9977017392578125L2.725127,3.5718927392578124Q2.647298,3.5941427392578125,2.574061,3.6286227392578123Q2.500824,3.6631027392578126,2.4340859999999997,3.7089127392578125Q2.367347,3.7547227392578124,2.308846,3.8106627392578125Q2.2503450000000003,3.8666127392578122,2.201604,3.9312427392578124Q2.152863,3.9958727392578126,2.115151,4.067492739257812Q2.07744,4.139122739257813,2.051739,4.215882739257813Q2.026039,4.292642739257813,2.01302,4.372532739257812Q2,4.452422739257813,2,4.533372739257812ZM6.29033,16.756282739257813Q4,13.644182739257813,4,9.809972739257812L4,5.287552739257812L12.00417,2.9992827392578123L20,5.287352739257813L20,9.812422739257812Q20,13.645582739257813,17.7104,16.75708273925781Q15.5127,19.743582739257814,12.00126,20.984982739257813Q8.48878,19.743582739257814,6.29033,16.756282739257813Z" fill-rule="evenodd" fill="#000000" fill-opacity="0.6000000238418579"/></g><g><path d="M17.6993,9.531166956054687L17.6998,9.530688956054687Q17.7035,9.527080956054688,17.7071,9.523436956054688Q17.8478,9.382783956054688,17.9239,9.199012956054688Q18,9.015241956054687,18,8.816329956054686Q18,8.620096956054688,17.925800000000002,8.438415956054687Q17.8517,8.256735956054687,17.714399999999998,8.116553956054688Q17.7108,8.112869956054688,17.7071,8.109222956054687Q17.5683,7.970465956054688,17.387439999999998,7.8944359560546875Q17.20654,7.818406956054687,17.01031,7.816382956054688L17.00969,7.816376956054688L17,7.8163299560546875Q16.80376,7.8163299560546875,16.62208,7.8904899560546875Q16.4404,7.9646499560546875,16.30022,8.101970956054688L16.29973,8.102449956054688L11,13.294019956054687L8.199939,10.551109956054688L8.19978,10.550949956054687Q8.059598,10.413629956054688,7.877916,10.339469956054687Q7.696235,10.265309956054688,7.5,10.265309956054688L7.4896913,10.265359956054688Q7.290789,10.267409956054687,7.107813,10.345419956054688Q6.924836,10.423439956054688,6.785641,10.565529956054688Q6.64832,10.705709956054687,6.57416,10.887389956054687Q6.5,11.069069956054687,6.5,11.265309956054688L6.500053,11.275619956054687Q6.502104,11.474519956054687,6.580115,11.657499956054687Q6.658125,11.840469956054687,6.80022,11.979669956054687L6.80038,11.979819956054687L10.30022,15.408239956054688Q10.36965,15.476249956054687,10.45087,15.529619956054688Q10.5321,15.582989956054687,10.62208,15.619719956054688Q10.71207,15.656449956054686,10.80744,15.675159956054689Q10.90281,15.693879956054687,11,15.693879956054687Q11.09719,15.693879956054687,11.19256,15.675159956054689Q11.28793,15.656449956054686,11.37792,15.619719956054688Q11.4679,15.582989956054687,11.54912,15.529619956054688Q11.63035,15.476249956054687,11.69978,15.408239956054688L17.6993,9.531166956054687Z" fill-rule="evenodd" fill="#000000" fill-opacity="0.6000000238418579"/></g></g></svg>