<svg xmlns="http://www.w3.org/2000/svg" xmlns:xlink="http://www.w3.org/1999/xlink" fill="none" version="1.1" width="24" height="24" viewBox="0 0 24 24"><defs><clipPath id="master_svg0_1_0088"><rect x="0" y="0" width="24" height="24" rx="0"/></clipPath></defs><g clip-path="url(#master_svg0_1_0088)"><g><rect x="0" y="0" width="24" height="24" rx="0" fill="#FFFFFF" fill-opacity="0.009999999776482582"/></g><g><path d="M10.81007,20.89221123046875Q11.33875,20.50001123046875,12,20.50001123046875Q12.6613,20.50001123046875,13.1899,20.89221123046875Q13.7099,21.27811123046875,13.9056,21.89011123046875Q13.9352,21.98271123046875,13.9821,22.06791123046875Q14.029,22.15301123046875,14.0914,22.22761123046875Q14.1538,22.30211123046875,14.2294,22.36321123046875Q14.305,22.42441123046875,14.391,22.46981123046875Q14.477,22.51521123046875,14.5701,22.54321123046875Q14.6632,22.57121123046875,14.7599,22.58081123046875Q14.8567,22.59031123046875,14.9535,22.58101123046875Q15.0503,22.57181123046875,15.1434,22.54401123046875Q17.9127,21.71951123046875,19.9266,19.62691123046875Q19.9903,19.56061123046875,20.041,19.48381123046875Q20.0916,19.40711123046875,20.1273,19.32241123046875Q20.1631,19.23761123046875,20.1828,19.14781123046875Q20.2025,19.05801123046875,20.2055,18.96611123046875Q20.2085,18.87421123046875,20.1947,18.78331123046875Q20.1809,18.69241123046875,20.1508,18.60551123046875Q20.1206,18.51871123046875,20.0751,18.43881123046875Q20.0296,18.35891123046875,19.9704,18.28861123046875Q19.5,17.73111123046875,19.5,17.00001123046875Q19.5,16.17161123046875,20.0858,15.58581123046875Q20.6716,15.00001123046875,21.5,15.00001123046875Q21.6004,15.00001123046875,21.6992,15.00971123046875Q21.7907,15.01871123046875,21.8823,15.01081123046875Q21.9739,15.00301123046875,22.0626,14.97861123046875Q22.1512,14.95421123046875,22.2339,14.91401123046875Q22.3166,14.87381123046875,22.3906,14.81921123046875Q22.4646,14.76471123046875,22.5274,14.69751123046875Q22.5902,14.63031123046875,22.6397,14.55291123046875Q22.6892,14.47541123046875,22.7237,14.39021123046875Q22.7583,14.30501123046875,22.7767,14.21491123046875Q23,13.12331123046875,23,12.00000123046875Q23,10.30417123046875,22.4961,8.700031230468749Q22.4722,8.623931230468749,22.4366,8.55258123046875Q22.4009,8.481231230468751,22.3544,8.416441230468749Q22.3079,8.35164123046875,22.2516,8.295041230468751Q22.1954,8.23844123046875,22.131,8.19147123046875Q22.0665,8.14450123046875,21.9954,8.10834123046875Q21.9243,8.07218123046875,21.8484,8.04775123046875Q21.7724,8.02332123046875,21.6936,8.01124123046875Q21.6147,7.99916123046875,21.535,7.99972123046875L21.5,8.000001230468751Q20.6716,8.000001230468751,20.0858,7.41421123046875Q19.5,6.82842123046875,19.5,6.00000123046875Q19.5,5.5322012304687505,19.7046,5.11721123046875Q19.7401,5.045321230468749,19.7636,4.96869123046875Q19.7871,4.8920712304687495,19.7982,4.81267123046875Q19.8092,4.73328123046875,19.8075,4.65314123046875Q19.8057,4.5730012304687495,19.7912,4.49416123046875Q19.7767,4.41532123046875,19.7498,4.33980123046875Q19.723,4.26428123046875,19.6844,4.19400123046875Q19.6459,4.12372123046875,19.5966,4.06049123046875Q19.5474,3.99725123046875,19.4886,3.94266123046875Q17.519399999999997,2.11156923046875,14.9407,1.39775523046875Q14.8581,1.37487023046875,14.7727,1.36639923046875Q14.6873,1.35793123046875,14.6018,1.36411823046875Q14.5162,1.37030723046875,14.433,1.39097723046875Q14.3497,1.41164623046875,14.2712,1.44619223046875Q14.1927,1.48073723046875,14.1212,1.5281492304687498Q14.0497,1.57556223046875,13.9874,1.6344552304687499Q13.925,1.6933492304687499,13.8736,1.7620032304687498Q13.8222,1.83065823046875,13.7832,1.90706723046875Q13.5306,2.40218933046875,13.0582,2.69758923046875Q12.5746,3.00000623046875,12,3.00000623046875Q11.4254,3.00000623046875,10.9418,2.69758923046875Q10.46942,2.40218943046875,10.21683,1.90706723046875Q10.17784,1.83065823046875,10.12642,1.7620032304687498Q10.075,1.6933492304687499,10.01263,1.6344552304687499Q9.95026,1.57556223046875,9.878779999999999,1.5281492304687498Q9.80729,1.48073723046875,9.72878,1.44619223046875Q9.650269999999999,1.41164623046875,9.56701,1.39097723046875Q9.48376,1.37030723046875,9.398209999999999,1.36411823046875Q9.31265,1.35793123046875,9.22729,1.36639923046875Q9.14194,1.37487023046875,9.05927,1.39775523046875Q6.48062,2.11156823046875,4.51135,3.94266123046875Q4.45265,3.99725123046875,4.40339,4.06049123046875Q4.35413,4.12372123046875,4.315580000000001,4.19400123046875Q4.27702,4.26428123046875,4.25015,4.33980123046875Q4.22328,4.41532123046875,4.2087900000000005,4.49416123046875Q4.1942900000000005,4.5730012304687495,4.19254,4.65314123046875Q4.19079,4.73328123046875,4.20182,4.81267123046875Q4.21286,4.8920712304687495,4.2364,4.96869123046875Q4.25994,5.045321230468749,4.295389999999999,5.11721123046875Q4.5,5.5322012304687505,4.5,6.00000123046875Q4.5,6.82842123046875,3.9142099999999997,7.41421123046875Q3.32843,8.000001230468751,2.507135,8.00002123046875L2.46503,7.99972123046875Q2.385264,7.99916123046875,2.306418,8.01124123046875Q2.227571,8.02332123046875,2.151636,8.04775123046875Q2.0757022,8.07218123046875,2.00460081,8.10834123046875Q1.9334994,8.14450123046875,1.869029,8.19147123046875Q1.804559,8.23844123046875,1.74835,8.295041230468751Q1.692141,8.35164123046875,1.645616,8.41643123046875Q1.59909,8.481221230468751,1.563424,8.55257123046875Q1.527758,8.62392123046875,1.503854,8.70002123046875Q1,10.30409123046875,1,12.00000123046875Q1,13.12331123046875,1.223281,14.21491123046875Q1.241706,14.30501123046875,1.276248,14.39021123046875Q1.31079,14.47541123046875,1.36029,14.55291123046875Q1.409791,14.63031123046875,1.4725890000000001,14.69751123046875Q1.535388,14.76471123046875,1.60938,14.81921123046875Q1.683371,14.87381123046875,1.766074,14.91401123046875Q1.848778,14.95421123046875,1.9374196,14.97861123046875Q2.0260615,15.00301123046875,2.11767,15.01081123046875Q2.209278,15.01871123046875,2.300781,15.00971123046875Q2.399578,15.00001123046875,2.5,15.00001123046875Q3.32843,15.00001123046875,3.9142099999999997,15.58581123046875Q4.5,16.17161123046875,4.5,17.00001123046875Q4.5,17.73111123046875,4.0296400000000006,18.28861123046875Q3.97035,18.35881123046875,3.92486,18.43881123046875Q3.8793800000000003,18.51871123046875,3.84922,18.60551123046875Q3.81907,18.69241123046875,3.80527,18.78331123046875Q3.79146,18.87421123046875,3.79447,18.96611123046875Q3.7974699999999997,19.05801123046875,3.81719,19.14781123046875Q3.8369,19.23761123046875,3.8726599999999998,19.32241123046875Q3.90842,19.40711123046875,3.9590300000000003,19.48381123046875Q4.00964,19.56061123046875,4.0733999999999995,19.62691123046875Q6.08734,21.71961123046875,8.85655,22.54401123046875Q8.94974,22.57181123046875,9.046520000000001,22.58101123046875Q9.14331,22.59031123046875,9.24007,22.58081123046875Q9.33682,22.57121123046875,9.429929999999999,22.54321123046875Q9.52304,22.51521123046875,9.60901,22.46981123046875Q9.69497,22.42441123046875,9.770579999999999,22.36321123046875Q9.84619,22.30211123046875,9.90861,22.22761123046875Q9.971029999999999,22.15301123046875,10.01792,22.06791123046875Q10.06481,21.98271123046875,10.09442,21.89011123046875Q10.29006,21.27811123046875,10.81007,20.89221123046875ZM14.3816,19.28611123046875Q13.3222,18.50001123046875,12,18.50001123046875Q10.67782,18.50001123046875,9.61836,19.28611123046875Q9.00927,19.73801123046875,8.62277,20.34711123046875Q7.22448,19.78611123046875,6.0861,18.78661123046875Q6.5,17.969311230468747,6.5,17.00001123046875Q6.5,15.34311123046875,5.32843,14.17161123046875Q4.35952,13.20271123046875,3.0587,13.03501123046875Q3,12.52201123046875,3,12.00000123046875Q3,10.94622123046875,3.23703,9.93717123046875Q4.42812,9.72873123046875,5.32843,8.82843123046875Q6.5,7.65685123046875,6.5,6.00000123046875Q6.5,5.47263123046875,6.36905,4.9774212304687495Q7.52289,4.04615123046875,8.90914,3.54331123046875Q9.31658,4.04012123046875,9.88138,4.39332123046875Q10.85153,5.00000123046875,12,5.00000123046875Q13.1485,5.00000123046875,14.1186,4.39332123046875Q14.6834,4.04012123046875,15.0909,3.54331123046875Q16.4771,4.04615123046875,17.631,4.97743123046875Q17.5,5.47263123046875,17.5,6.00000123046875Q17.5,7.65685123046875,18.6716,8.82843123046875Q19.5735,9.73039123046875,20.7631,9.937961230468751Q21,10.94667123046875,21,12.00000123046875Q21,12.52191123046875,20.9413,13.03511123046875Q19.6405,13.20271123046875,18.6716,14.17161123046875Q17.5,15.34311123046875,17.5,17.00001123046875Q17.5,17.969311230468747,17.913899999999998,18.78661123046875Q16.7755,19.78611123046875,15.3772,20.34711123046875Q14.9907,19.73801123046875,14.3816,19.28611123046875Z" fill-rule="evenodd" fill="#000000" fill-opacity="0.6000000238418579"/></g><g><path d="M8.818018,8.818018Q7.5,10.13604,7.5,12Q7.5,13.863959999999999,8.818018,15.18198Q10.13604,16.5,12,16.5Q13.863959999999999,16.5,15.18198,15.18198Q16.5,13.863959999999999,16.5,12Q16.5,10.13604,15.18198,8.818018Q13.863959999999999,7.5,12,7.5Q10.13604,7.5,8.818018,8.818018ZM10.23223,13.767769999999999Q9.5,13.035540000000001,9.5,12Q9.5,10.964459999999999,10.23223,10.23223Q10.964459999999999,9.5,12,9.5Q13.035540000000001,9.5,13.767769999999999,10.23223Q14.5,10.964459999999999,14.5,12Q14.5,13.035540000000001,13.767769999999999,13.767769999999999Q13.035540000000001,14.5,12,14.5Q10.964459999999999,14.5,10.23223,13.767769999999999Z" fill-rule="evenodd" fill="#000000" fill-opacity="0.6000000238418579"/></g></g></svg>