<svg xmlns="http://www.w3.org/2000/svg" xmlns:xlink="http://www.w3.org/1999/xlink" fill="none" version="1.1" width="24" height="24" viewBox="0 0 24 24"><defs><clipPath id="master_svg0_1_0080"><rect x="0" y="0" width="24" height="24" rx="0"/></clipPath></defs><g clip-path="url(#master_svg0_1_0080)"><g><path d="M1.878679,20.1213Q2.757359,21,4,21L20,21Q21.2426,21,22.1213,20.1213Q23,19.2426,23,18L23,5Q23,4.171574,22.4142,3.58579Q21.8284,3,21,3L3,3Q2.171573,3,1.585786,3.585786Q1,4.171573,1,5L1,18Q1,19.2426,1.878679,20.1213ZM21,7L21,6Q21,5.58579,20.7071,5.29289Q20.4142,5,20,5L4,5Q3.5857900000000003,5,3.29289,5.29289Q3,5.58579,3,6L3,7L21,7ZM3,9L21,9L21,18Q21,18.4142,20.7071,18.7071Q20.4142,19,20,19L4,19Q3.5857900000000003,19,3.29289,18.7071Q3,18.4142,3,18L3,9ZM4.79289,14.7071L7.79289,17.7071Q7.86254,17.776699999999998,7.94443,17.8315Q8.02632,17.886200000000002,8.11732,17.9239Q8.20831,17.9616,8.30491,17.980800000000002Q8.40151,18,8.5,18Q8.59849,18,8.69509,17.980800000000002Q8.79169,17.9616,8.88268,17.9239Q8.97368,17.886200000000002,9.05557,17.8315Q9.13746,17.776699999999998,9.20711,17.7071Q9.27675,17.6375,9.33147,17.5556Q9.38619,17.4737,9.42388,17.3827Q9.46157,17.2917,9.48078,17.1951Q9.5,17.0985,9.5,17Q9.5,16.9015,9.48078,16.8049Q9.46157,16.7083,9.42388,16.6173Q9.38619,16.5263,9.33147,16.4444Q9.27675,16.3625,9.20711,16.2929L6.98141,14.0672L9.14018,12.26822Q9.29299,12.14088,9.38544,11.96476Q9.477879999999999,11.788630000000001,9.49589,11.59054Q9.5139,11.39244,9.45473,11.20253Q9.39556,11.01262,9.26822,10.85982Q9.205169999999999,10.78415,9.12857,10.72224Q9.051960000000001,10.66034,8.96476,10.61456Q8.87755,10.56879,8.78308,10.5409Q8.68862,10.513020000000001,8.59054,10.50411Q8.49245,10.495190000000001,8.39451,10.50558Q8.29656,10.51597,8.20253,10.54527Q8.1085,10.57457,8.021989999999999,10.621649999999999Q7.93548,10.66873,7.85982,10.73178L4.85982,13.23178Q4.82497,13.26082,4.79289,13.29289Q4.65224,13.43355,4.5761199999999995,13.61732Q4.5,13.80109,4.5,14Q4.5,14.1989,4.5761199999999995,14.3827Q4.65224,14.5665,4.79289,14.7071ZM10.51628,16.8203L10.51613,16.8211Q10.5,16.9098,10.5,17L10.5,17.0031Q10.50028,17.0901,10.51555,17.1757Q10.53083,17.2613,10.56065,17.343Q10.59048,17.4247,10.63395,17.5Q10.67743,17.5753,10.73325,17.6419Q10.78907,17.7086,10.85557,17.764699999999998Q10.92206,17.820700000000002,10.99722,17.8644Q11.07239,17.908099999999997,11.15398,17.938200000000002Q11.23556,17.9683,11.32111,17.9839Q11.40983,18,11.5,18L11.50313,18Q11.59009,17.9997,11.67569,17.9844Q11.76129,17.9692,11.84298,17.9393Q11.92466,17.9095,11.99997,17.866Q12.0753,17.8226,12.1419,17.7667Q12.2086,17.710900000000002,12.2647,17.644399999999997Q12.3207,17.5779,12.3644,17.5028Q12.4081,17.427599999999998,12.4382,17.346Q12.4683,17.264400000000002,12.4839,17.1789L12.484,17.1781L13.4837,11.67971L13.4839,11.678889999999999Q13.5,11.59017,13.5,11.50001L13.5,11.496870000000001Q13.4997,11.40991,13.4844,11.32431Q13.4692,11.238710000000001,13.4393,11.15702Q13.4095,11.07534,13.366,11.000029999999999Q13.3226,10.92473,13.2667,10.85805Q13.2109,10.79138,13.1444,10.73534Q13.0779,10.6793,13.0028,10.635580000000001Q12.9276,10.59186,12.846,10.56177Q12.7644,10.531690000000001,12.6789,10.51613Q12.5902,10.5,12.5,10.5L12.4854,10.50011Q12.3366,10.502279999999999,12.1949,10.54769Q12.0532,10.5931,11.93079,10.677810000000001Q11.76725,10.79103,11.65948,10.95822Q11.55171,11.125409999999999,11.51613,11.321110000000001L11.51598,11.32193L10.51628,16.8203ZM17.0186,14.0672L14.7929,16.2929Q14.7232,16.3625,14.6685,16.4444Q14.6138,16.5263,14.5761,16.6173Q14.5384,16.7083,14.5192,16.8049Q14.5,16.9015,14.5,17Q14.5,17.0985,14.5192,17.1951Q14.5384,17.2917,14.5761,17.3827Q14.6138,17.4737,14.6685,17.5556Q14.7232,17.6375,14.7929,17.7071Q14.8625,17.776699999999998,14.9444,17.8315Q15.0263,17.886200000000002,15.1173,17.9239Q15.2083,17.9616,15.3049,17.980800000000002Q15.4015,18,15.5,18Q15.5985,18,15.6951,17.980800000000002Q15.7917,17.9616,15.8827,17.9239Q15.9737,17.886200000000002,16.0556,17.8315Q16.1375,17.776699999999998,16.2071,17.7071L19.2071,14.7071Q19.2768,14.6375,19.3315,14.5556Q19.3862,14.4737,19.4239,14.3827Q19.4616,14.2917,19.4808,14.1951Q19.5,14.0985,19.5,14Q19.5,13.90151,19.4808,13.80491Q19.4616,13.70831,19.4239,13.61732Q19.3862,13.52632,19.3315,13.44443Q19.2768,13.36254,19.2071,13.29289Q19.175,13.26082,19.1402,13.23178L16.1402,10.73178Q15.9874,10.60444,15.7975,10.54527Q15.6076,10.4861,15.4095,10.50411Q15.2114,10.522120000000001,15.0352,10.61456Q14.8591,10.70701,14.7318,10.85982Q14.6044,11.01262,14.5453,11.20253Q14.4861,11.39244,14.5041,11.59054Q14.5221,11.788630000000001,14.6146,11.96476Q14.707,12.14088,14.8598,12.26822L17.0186,14.0672Z" fill-rule="evenodd" fill="#000000" fill-opacity="0.6000000238418579"/></g></g></svg>