<svg xmlns="http://www.w3.org/2000/svg" xmlns:xlink="http://www.w3.org/1999/xlink" fill="none" version="1.1" width="18" height="18" viewBox="0 0 18 18"><defs><clipPath id="master_svg0_1_0396"><rect x="0" y="0" width="18" height="18" rx="0"/></clipPath></defs><g clip-path="url(#master_svg0_1_0396)"><g><path d="M15.9837220703125,7.6559210351562506L15.9842220703125,7.656421035156249Q16.0887220703125,7.75545103515625,16.2224220703125,7.80875103515625Q16.3561220703125,7.8620510351562505,16.5001220703125,7.8620510351562505L16.502322070312502,7.86204103515625Q16.5112220703125,7.86202103515625,16.5202220703125,7.86177103515625Q16.6694220703125,7.85777103515625,16.805622070312502,7.79700103515625Q16.9419220703125,7.7362310351562495,17.0445220703125,7.62794103515625Q17.1435220703125,7.52345103515625,17.1968220703125,7.389731035156251Q17.2501220703125,7.25600103515625,17.2501220703125,7.1120510351562505Q17.2501220703125,7.10197103515625,17.2498220703125,7.09191103515625Q17.2458220703125,6.94278103515625,17.1850220703125,6.80653103515625Q17.124322070312502,6.6702810351562505,17.016022070312502,6.56767103515625L17.0156220703125,6.567331035156251L17.014822070312498,6.56650103515625Q13.8349220703125,3.55375503515625,9.4545720703125,3.38387003515625Q5.0979820703125,3.2149050351562503,1.7121950703125,5.93235103515625Q1.3358840703125,6.2344010351562495,0.9842220703125,6.56767103515625Q0.8721340703125,6.673891035156251,0.8111280703125,6.81576103515625Q0.7501220703125,6.95762103515625,0.7501220703125,7.1120510351562505Q0.7501220703125,7.12139103515625,0.7503550703125,7.13073103515625Q0.7538200703125,7.2698010351562505,0.8069340703125,7.39839103515625Q0.8600480703125,7.52697103515625,0.9557440703125,7.62795103515625Q1.0583630703125,7.7362310351562495,1.1946090703125,7.79700103515625Q1.3308540703125,7.85777103515625,1.4799849703125,7.86177103515625Q1.4900516703125,7.8620510351562505,1.5001220703125,7.8620510351562505Q1.5080727903125,7.86204103515625,1.5160224703125,7.86188103515625Q1.6558300703125,7.85891103515625,1.7851760703125,7.80576103515625Q1.9145210703125,7.752611035156249,2.0160220703125002,7.656421035156249Q2.3229200703125,7.36558103515625,2.6510920703125,7.10217103515625Q5.5998320703125,4.73549603515625,9.3964420703125,4.88274303515625Q13.2132220703125,5.03077403515625,15.9837220703125,7.6559210351562506Z" fill-rule="evenodd" fill="#000000" fill-opacity="0.25999999046325684"/></g><g><path d="M9.0001220703125,6.75006103515625Q5.6140920703125,6.75006103515625,3.2197920703125,9.14435103515625Q3.1143030703125,9.24984103515625,3.0572120703125,9.38767103515625Q3.0001220703125,9.52550103515625,3.0001220703125,9.67468103515625Q3.0001220703125,9.82387103515625,3.0572120703125,9.96170103515625Q3.1143030703125,10.09953103515625,3.2197920703125,10.20502103515625Q3.3252810703125,10.31050103515625,3.4631090703125,10.36759103515625Q3.6009380703125,10.42468103515625,3.7501220703125,10.42468103515625Q3.8993060703125,10.42468103515625,4.0371350703125,10.36759103515625Q4.1749630703125,10.31050103515625,4.2804520703125,10.20502103515625Q6.2354120703125,8.25006103515625,9.0001220703125,8.25006103515625Q11.7642920703125,8.25006103515625,13.7190220703125,10.204241035156251L13.7197920703125,10.20502103515625Q13.8253220703125,10.31050103515625,13.9631220703125,10.36759103515625Q14.1009220703125,10.42468103515625,14.2501220703125,10.42468103515625Q14.2681220703125,10.42468103515625,14.2861220703125,10.42382103515625Q14.4258220703125,10.41710103515625,14.5537220703125,10.36050103515625Q14.6815220703125,10.303901035156251,14.7804220703125,10.20501103515625Q14.8859220703125,10.09953103515625,14.9430220703125,9.96170103515625Q15.0001220703125,9.82387103515625,15.0001220703125,9.67468103515625Q15.0001220703125,9.52550103515625,14.9430220703125,9.38767103515625Q14.8859220703125,9.24984103515625,14.7804220703125,9.14436103515625Q12.3861520703125,6.75006103515625,9.0001220703125,6.75006103515625Z" fill-rule="evenodd" fill="#000000" fill-opacity="0.25999999046325684"/></g><g><path d="M9.0001220703125,10.12506103515625Q6.9321090703125,10.12506103515625,5.4697920703125,11.58737803515625Q5.3643030703125,11.69286803515625,5.3072120703125,11.830696035156251Q5.2501220703125,11.96852103515625,5.2501220703125,12.11771103515625Q5.2501220703125,12.26689103515625,5.3072120703125,12.40472103515625Q5.3643030703125,12.54255103515625,5.4697920703125,12.64804103515625Q5.5752810703125,12.75353103515625,5.7131100703125,12.81062103515625Q5.8509380703125,12.86771103515625,6.0001220703125,12.86771103515625Q6.1493060703125,12.86771103515625,6.2871350703125,12.81062103515625Q6.4249630703125,12.75353103515625,6.5304520703125,12.64804103515625Q7.5534320703125,11.62506103515625,9.0001220703125,11.62506103515625Q10.4468120703125,11.62506103515625,11.4697920703125,12.64804103515625Q11.5752820703125,12.75353103515625,11.7131120703125,12.81062103515625Q11.850942070312499,12.86771103515625,12.0001220703125,12.86771103515625Q12.149302070312501,12.86771103515625,12.2871320703125,12.81062103515625Q12.4249620703125,12.75353103515625,12.5304520703125,12.64804103515625Q12.635942070312499,12.54255103515625,12.693032070312501,12.40472103515625Q12.7501220703125,12.26689103515625,12.7501220703125,12.11771103515625Q12.7501220703125,12.09968103515625,12.749252070312501,12.081681035156251Q12.7425420703125,11.94200103515625,12.6859320703125,11.81413203515625Q12.6293320703125,11.68626003515625,12.5304520703125,11.58737803515625Q11.068132070312501,10.12506103515625,9.0001220703125,10.12506103515625Z" fill-rule="evenodd" fill="#000000" fill-opacity="0.6000000238418579"/></g><g><path d="M9.9373779296875,14.06256103515625Q9.9373779296875,14.15490103515625,9.9193679296875,14.24546103515625Q9.9013479296875,14.33602103515625,9.8660179296875,14.42133103515625Q9.8306779296875,14.50663103515625,9.7793779296875,14.58341103515625Q9.7280779296875,14.66018103515625,9.6627879296875,14.72547103515625Q9.5974979296875,14.79076103515625,9.5207279296875,14.84206103515625Q9.4439479296875,14.89336103515625,9.3586479296875,14.92870103515625Q9.2733379296875,14.96403103515625,9.1827779296875,14.98205103515625Q9.0922179296875,15.00006103515625,8.9998779296875,15.00006103515625Q8.9075419296875,15.00006103515625,8.8169809296875,14.98205103515625Q8.7264189296875,14.96403103515625,8.6411119296875,14.92870103515625Q8.5558049296875,14.89336103515625,8.4790309296875,14.84206103515625Q8.4022569296875,14.79076103515625,8.3369649296875,14.72547103515625Q8.2716739296875,14.66018103515625,8.2203749296875,14.58341103515625Q8.1690759296875,14.50663103515625,8.1337408296875,14.42133103515625Q8.0984055296875,14.33602103515625,8.0803917296875,14.24546103515625Q8.0623779296875,14.15490103515625,8.0623779296875,14.06256103515625Q8.0623779296875,13.97022503515625,8.0803917296875,13.87966403515625Q8.0984055296875,13.78910203515625,8.1337408296875,13.70379503515625Q8.1690759296875,13.61848803515625,8.2203749296875,13.54171403515625Q8.2716739296875,13.46494003515625,8.3369649296875,13.39964803515625Q8.4022569296875,13.33435703515625,8.4790309296875,13.28305803515625Q8.5558049296875,13.23175903515625,8.6411119296875,13.19642393515625Q8.7264189296875,13.16108863515625,8.8169809296875,13.14307483515625Q8.9075419296875,13.12506103515625,8.9998779296875,13.12506103515625Q9.0922179296875,13.12506103515625,9.1827779296875,13.14307483515625Q9.2733379296875,13.16108863515625,9.3586479296875,13.19642393515625Q9.4439479296875,13.23175903515625,9.5207279296875,13.28305803515625Q9.5974979296875,13.33435703515625,9.6627879296875,13.39964803515625Q9.7280779296875,13.46494003515625,9.7793779296875,13.54171403515625Q9.8306779296875,13.61848803515625,9.8660179296875,13.70379503515625Q9.9013479296875,13.78910203515625,9.9193679296875,13.87966403515625Q9.9373779296875,13.97022503515625,9.9373779296875,14.06256103515625Z" fill="#000000" fill-opacity="0.6000000238418579"/></g></g></svg>