<svg xmlns="http://www.w3.org/2000/svg" xmlns:xlink="http://www.w3.org/1999/xlink" fill="none" version="1.1" width="18" height="18" viewBox="0 0 18 18"><defs><clipPath id="master_svg0_1412_2835"><rect x="0" y="0" width="18" height="18" rx="0"/></clipPath></defs><g clip-path="url(#master_svg0_1412_2835)"><g><path d="M3.1663699999999997,3.1663699999999997Q0.75,5.58274,0.75,9Q0.75,12.4173,3.1663699999999997,14.8336Q5.58274,17.25,9,17.25Q12.4173,17.25,14.8336,14.8336Q17.25,12.4173,17.25,9Q17.25,5.58274,14.8336,3.1663699999999997Q12.4173,0.75,9,0.75Q5.58274,0.75,3.1663699999999997,3.1663699999999997ZM4.22703,13.773Q2.25,11.7959,2.25,9Q2.25,6.20406,4.22703,4.22703Q6.20406,2.25,9,2.25Q11.7959,2.25,13.773,4.22703Q15.75,6.20406,15.75,9Q15.75,11.7959,13.773,13.773Q11.7959,15.75,9,15.75Q6.20406,15.75,4.22703,13.773Z" fill-rule="evenodd" fill="#616162" fill-opacity="1"/></g><g><path d="M1.5,9.75L16.5,9.75Q16.573900000000002,9.75,16.6463,9.735589000000001Q16.7188,9.721178,16.787,9.69291Q16.8553,9.664641,16.9167,9.623602Q16.978099999999998,9.582563,17.0303,9.53033Q17.0826,9.478097,17.1236,9.416678Q17.1646,9.355258,17.1929,9.287013Q17.2212,9.218767,17.235599999999998,9.146318Q17.25,9.0738685,17.25,9Q17.25,8.9261315,17.235599999999998,8.853682Q17.2212,8.781233,17.1929,8.712987Q17.1646,8.644742,17.1236,8.583322Q17.0826,8.521903,17.0303,8.46967Q16.978099999999998,8.417437,16.9167,8.376398Q16.8553,8.335359,16.787,8.30709Q16.7188,8.278822,16.6463,8.264410999999999Q16.573900000000002,8.25,16.5,8.25L1.5,8.25Q1.4261314999999999,8.25,1.353682,8.264410999999999Q1.281233,8.278822,1.212987,8.30709Q1.144742,8.335359,1.083322,8.376398Q1.021903,8.417437,0.96967,8.46967Q0.917437,8.521903,0.876398,8.583322Q0.835359,8.644742,0.80709,8.712987Q0.778822,8.781233,0.764411,8.853682Q0.75,8.9261315,0.75,9Q0.75,9.0738685,0.764411,9.146318Q0.778822,9.218767,0.80709,9.287013Q0.835359,9.355258,0.876398,9.416678Q0.917437,9.478097,0.96967,9.53033Q1.021903,9.582563,1.083322,9.623602Q1.144742,9.664641,1.212987,9.69291Q1.281233,9.721178,1.353682,9.735589000000001Q1.4261314999999999,9.75,1.5,9.75Z" fill-rule="evenodd" fill="#616162" fill-opacity="1"/></g><g><path d="M6.182319,3.4181600000000003Q5.25,5.74896,5.25,9Q5.25,12.251,6.182319,14.5818Q7.24958,17.25,9,17.25Q10.75042,17.25,11.81768,14.5818Q12.75,12.251,12.75,9Q12.75,5.74896,11.81768,3.4181600000000003Q10.75042,0.75,9,0.75Q7.24958,0.75,6.182319,3.4181600000000003ZM7.57503,14.0248Q6.75,11.9622,6.75,9Q6.75,6.03783,7.57503,3.97524Q7.9371100000000006,3.07005,8.37718,2.60472Q8.71264,2.25,9,2.25Q9.28736,2.25,9.62282,2.60472Q10.06289,3.07005,10.42497,3.97524Q11.25,6.03783,11.25,9Q11.25,11.9622,10.42497,14.0248Q10.06289,14.93,9.62282,15.3953Q9.28736,15.75,9,15.75Q8.71264,15.75,8.37718,15.3953Q7.9371100000000006,14.93,7.57503,14.0248Z" fill-rule="evenodd" fill="#616162" fill-opacity="1"/></g><g><path d="M14.83327734375,4.33399665625L14.83367734375,4.33355265625Q14.93917734375,4.22806365625,14.99627734375,4.09023565625Q15.05337734375,3.95240665625,15.05337734375,3.8032226737078Q15.05337734375,3.65403865625,14.99627734375,3.51620965625Q14.93917734375,3.37838165625,14.83367734375,3.27289265625Q14.72817734375,3.16740365625,14.59037734375,3.11031265625Q14.45257734375,3.05322265625,14.30337734375,3.05322265625Q14.15417734375,3.05322265625,14.01637734375,3.11031265625Q13.87857734375,3.16740365625,13.77307734375,3.27289265625L13.77267734375,3.27330065625Q11.79572734375,5.2499326562499995,9.00005734375,5.2499326562499995Q6.20414734375,5.2499326562499995,4.22710834375,3.27289365625Q4.12161834375,3.16740365625,3.98379034375,3.11031365625Q3.84596234375,3.05322265625,3.696777780195,3.05322265625Q3.67736134375,3.05322265625,3.65797124375,3.05422765625Q3.51903834375,3.06142565625,3.39192934375,3.11797265625Q3.26482034375,3.17451965625,3.16644834375,3.27289165625Q3.06095834375,3.37838065625,3.00386834375,3.51620965625Q2.94677734375,3.65403765625,2.94677734375,3.80322265625Q2.94677734375,3.82263845625,2.94778234375,3.84202875625Q2.95498034375,3.98096165625,3.01152734375,4.10807065625Q3.06807434375,4.23517965625,3.16644634375,4.33355165625Q5.58282734375,6.7499326562499995,9.00005734375,6.7499326562499995Q12.41701734375,6.7499326562499995,14.83327734375,4.33399665625Z" fill-rule="evenodd" fill="#616162" fill-opacity="1"/></g><g><path d="M3.16669134375,13.66614L3.16644634375,13.66638Q3.06095734375,13.77187,3.00386734375,13.9097Q2.94677734375,14.04753,2.94677734375,14.19671Q2.94677734375,14.3459,3.00386834375,14.48373Q3.06095834375,14.62155,3.16644734375,14.72704Q3.27193734375,14.83253,3.40976534375,14.88962Q3.54759334375,14.94671,3.69677734375,14.94671Q3.84596134375,14.94671,3.98379034375,14.88962Q4.12161834375,14.83253,4.22710834375,14.72704L4.22733234375,14.72682Q6.20430734375,12.75,9.00005734375,12.75Q11.79600734375,12.75,13.77307734375,14.72704Q13.87857734375,14.83253,14.01637734375,14.88962Q14.15417734375,14.94671,14.30337734375,14.94671Q14.45257734375,14.94671,14.59037734375,14.88962Q14.72827734375,14.83253,14.83367734375,14.72704Q14.93917734375,14.62155,14.99627734375,14.48372Q15.05337734375,14.3459,15.05337734375,14.19671Q15.05337734375,14.04753,14.99627734375,13.9097Q14.93917734375,13.77187,14.83367734375,13.66638Q12.41732734375,11.25,9.00005734375,11.25Q5.58299734375,11.25,3.16669134375,13.66614Z" fill-rule="evenodd" fill="#616162" fill-opacity="1"/></g></g></svg>