<svg xmlns="http://www.w3.org/2000/svg" xmlns:xlink="http://www.w3.org/1999/xlink" fill="none" version="1.1" width="24" height="24" viewBox="0 0 24 24"><defs><clipPath id="master_svg0_118_1995"><rect x="0" y="0" width="24" height="24" rx="0"/></clipPath></defs><g style="opacity:0.6000000238418579;" clip-path="url(#master_svg0_118_1995)"><g><rect x="0" y="0" width="24" height="24" rx="0" fill="#FFFFFF" fill-opacity="0.009999999776482582"/></g><g><path d="M13,18L13,15Q13,14.9015086,12.980785000000001,14.80491Q12.96157,14.708311,12.923879,14.617317Q12.886188,14.526322,12.83147,14.44443Q12.776751,14.362537,12.707107,14.292893Q12.637463,14.223249,12.55557,14.16853Q12.473678,14.113812,12.382683,14.076121Q12.291689,14.03843,12.19509,14.019214999999999Q12.0984914,14,12,14Q11.9015086,14,11.80491,14.019214999999999Q11.708311,14.03843,11.617317,14.076121Q11.526322,14.113812,11.44443,14.16853Q11.362537,14.223249,11.292893,14.292893Q11.223249,14.362537,11.16853,14.44443Q11.113812,14.526322,11.076121,14.617317Q11.03843,14.708311,11.019214999999999,14.80491Q11,14.9015086,11,15L11,18Q11,18.098489999999998,11.019214999999999,18.19509Q11.03843,18.29169,11.076121,18.38268Q11.113812,18.47368,11.16853,18.55557Q11.223249,18.63746,11.292893,18.70711Q11.362537,18.77675,11.44443,18.83147Q11.526322,18.88619,11.617317,18.92388Q11.708311,18.961570000000002,11.80491,18.98078Q11.9015086,19,12,19Q12.0984914,19,12.19509,18.98078Q12.291689,18.961570000000002,12.382683,18.92388Q12.473678,18.88619,12.55557,18.83147Q12.637463,18.77675,12.707107,18.70711Q12.776751,18.63746,12.83147,18.55557Q12.886188,18.47368,12.923879,18.38268Q12.96157,18.29169,12.980785000000001,18.19509Q13,18.098489999999998,13,18Z" fill-rule="evenodd" fill="#000000" fill-opacity="1"/></g><g><path d="M10,19L3,19Q2.9015086,19,2.80491,19.019215Q2.708311,19.038429999999998,2.617317,19.076121Q2.526322,19.113812,2.44443,19.16853Q2.362537,19.223249,2.292893,19.292893Q2.223249,19.362537,2.16853,19.44443Q2.1138120000000002,19.526322,2.076121,19.617317Q2.03843,19.708311,2.019215,19.80491Q2,19.9015086,2,20Q2,20.0984914,2.019215,20.19509Q2.03843,20.291689,2.076121,20.382683Q2.1138120000000002,20.473678,2.16853,20.55557Q2.223249,20.637463,2.292893,20.707107Q2.362537,20.776751,2.44443,20.83147Q2.526322,20.886188,2.617317,20.923879Q2.708311,20.961570000000002,2.80491,20.980785Q2.9015086,21,3,21L10,21Q10.09849,21,10.19509,20.980785Q10.29169,20.961570000000002,10.38268,20.923879Q10.47368,20.886188,10.55557,20.83147Q10.63746,20.776751,10.70711,20.707107Q10.77675,20.637463,10.83147,20.55557Q10.88619,20.473678,10.92388,20.382683Q10.96157,20.291689,10.98078,20.19509Q11,20.0984914,11,20Q11,19.9015086,10.98078,19.80491Q10.96157,19.708311,10.92388,19.617317Q10.88619,19.526322,10.83147,19.44443Q10.77675,19.362537,10.70711,19.292893Q10.63746,19.223249,10.55557,19.16853Q10.47368,19.113812,10.38268,19.076121Q10.29169,19.038429999999998,10.19509,19.019215Q10.09849,19,10,19Z" fill-rule="evenodd" fill="#000000" fill-opacity="1"/></g><g><path d="M14,21L21,21Q21.098489999999998,21,21.19509,20.980785Q21.29169,20.961570000000002,21.38268,20.923879Q21.47368,20.886188,21.55557,20.83147Q21.63746,20.776751,21.70711,20.707107Q21.77675,20.637463,21.83147,20.55557Q21.88619,20.473678,21.92388,20.382683Q21.961570000000002,20.291689,21.98078,20.19509Q22,20.0984914,22,20Q22,19.9015086,21.98078,19.80491Q21.961570000000002,19.708311,21.92388,19.617317Q21.88619,19.526322,21.83147,19.44443Q21.77675,19.362537,21.70711,19.292893Q21.63746,19.223249,21.55557,19.16853Q21.47368,19.113812,21.38268,19.076121Q21.29169,19.038429999999998,21.19509,19.019215Q21.098489999999998,19,21,19L14,19Q13.9015086,19,13.80491,19.019215Q13.708311,19.038429999999998,13.617317,19.076121Q13.526322,19.113812,13.44443,19.16853Q13.362537,19.223249,13.292893,19.292893Q13.223249,19.362537,13.16853,19.44443Q13.113812,19.526322,13.076121,19.617317Q13.03843,19.708311,13.019214999999999,19.80491Q13,19.9015086,13,20Q13,20.0984914,13.019214999999999,20.19509Q13.03843,20.291689,13.076121,20.382683Q13.113812,20.473678,13.16853,20.55557Q13.223249,20.637463,13.292893,20.707107Q13.362537,20.776751,13.44443,20.83147Q13.526322,20.886188,13.617317,20.923879Q13.708311,20.961570000000002,13.80491,20.980785Q13.9015086,21,14,21Z" fill-rule="evenodd" fill="#000000" fill-opacity="1"/></g><g><path d="M14.121310000000001,17.878687Q13.24263,17,12,17Q10.757374,17,9.878687,17.878687Q9,18.757374,9,20Q9,21.24263,9.878687,22.12131Q10.757374,23,12,23Q13.24263,23,14.121310000000001,22.12131Q15,21.24263,15,20Q15,18.757374,14.121310000000001,17.878687ZM11.2929,19.2929Q11.5858,19,12,19Q12.414200000000001,19,12.7071,19.2929Q13,19.5858,13,20Q13,20.4142,12.7071,20.7071Q12.414200000000001,21,12,21Q11.5858,21,11.2929,20.7071Q11,20.4142,11,20Q11,19.5858,11.2929,19.2929Z" fill-rule="evenodd" fill="#000000" fill-opacity="1"/></g><g><path d="M17.417,9.5L6.58302,9.5Q6.86571,11.14389,8.11091,12.3891Q9.72183,14,12,14Q14.27817,14,15.8891,12.3891Q17.1343,11.14389,17.417,9.5ZM4.5,8.5Q4.5,5.3934,6.6967,3.1967Q8.8934,1,12,1Q15.1066,1,17.3033,3.1967Q19.5,5.3934,19.5,8.5Q19.5,11.6066,17.3033,13.8033Q15.1066,16,12,16Q8.8934,16,6.6967,13.8033Q4.5,11.6066,4.5,8.5ZM15.8891,4.6109100000000005Q17.1343,5.85611,17.417,7.5L6.58302,7.5Q6.86571,5.85611,8.11091,4.6109100000000005Q9.72183,3,12,2.999999Q14.27818,3,15.8891,4.6109100000000005Z" fill-rule="evenodd" fill="#000000" fill-opacity="1"/></g><g><path d="M14.70111,3.54483Q13.72233,1,12,1Q10.277674,1,9.298892,3.54483Q8.5,5.62194,8.5,8.5Q8.5,11.37806,9.298892,13.4552Q10.277675,16,12,16Q13.72232,16,14.70111,13.4552Q15.5,11.37806,15.5,8.5Q15.5,5.62194,14.70111,3.54483ZM11.76674,3.18357Q11.93367,2.999999,12,2.999999Q12.06633,3,12.23326,3.18357Q12.55573,3.5382,12.83442,4.26279Q13.5,5.9933,13.5,8.5Q13.5,11.0067,12.83442,12.7372Q12.55573,13.4618,12.23326,13.8164Q12.06633,14,12,14Q11.93367,14,11.76674,13.8164Q11.44427,13.4618,11.16558,12.7372Q10.5,11.00671,10.5,8.5Q10.5,5.99329,11.16558,4.26279Q11.44427,3.5382,11.76674,3.18357Z" fill-rule="evenodd" fill="#000000" fill-opacity="1"/></g><g><path d="M18.5,7.5L5.5,7.5Q5.4015086,7.5,5.30491,7.519215Q5.208311,7.53843,5.117317,7.576121Q5.026322,7.613812,4.94443,7.66853Q4.862537,7.723249,4.792893,7.792893Q4.723249,7.862537,4.66853,7.94443Q4.613812,8.026322,4.576121,8.117317Q4.53843,8.208311,4.519215,8.30491Q4.5,8.4015086,4.5,8.5Q4.5,8.5984914,4.519215,8.69509Q4.53843,8.791689,4.576121,8.882683Q4.613812,8.973678,4.66853,9.05557Q4.723249,9.137463,4.792893,9.207107Q4.862537,9.276751,4.94443,9.33147Q5.026322,9.386188,5.117317,9.423879Q5.208311,9.46157,5.30491,9.480785000000001Q5.4015086,9.5,5.5,9.5L18.5,9.5Q18.5985,9.5,18.6951,9.480785000000001Q18.7917,9.46157,18.8827,9.423879Q18.9737,9.386188,19.0556,9.33147Q19.1375,9.276751,19.2071,9.207107Q19.276699999999998,9.137463,19.3315,9.05557Q19.386200000000002,8.973678,19.4239,8.882683Q19.4616,8.791689,19.480800000000002,8.69509Q19.5,8.5984914,19.5,8.5Q19.5,8.4015086,19.480800000000002,8.30491Q19.4616,8.208311,19.4239,8.117317Q19.386200000000002,8.026322,19.3315,7.94443Q19.276699999999998,7.862537,19.2071,7.792893Q19.1375,7.723249,19.0556,7.66853Q18.9737,7.613812,18.8827,7.576121Q18.7917,7.53843,18.6951,7.519215Q18.5985,7.5,18.5,7.5Z" fill-rule="evenodd" fill="#000000" fill-opacity="1"/></g></g></svg>