<svg xmlns="http://www.w3.org/2000/svg" xmlns:xlink="http://www.w3.org/1999/xlink" fill="none" version="1.1" width="24" height="24" viewBox="0 0 24 24"><defs><clipPath id="master_svg0_1_0096"><rect x="0" y="0" width="24" height="24" rx="0"/></clipPath></defs><g clip-path="url(#master_svg0_1_0096)"><g><rect x="0" y="0" width="24" height="24" rx="0" fill="#FFFFFF" fill-opacity="0.009999999776482582"/></g><g><path d="M17.2462,3.131783L17.2459,3.131598Q17.0154,3.000002,16.75,3Q16.738599999999998,3,16.7272,3.00026Q16.6047,3.00305,16.4866,3.035321Q16.2947,3.08772,16.1375,3.209562Q15.9802,3.331404,15.8816,3.50414Q15.75,3.734607,15.75,4Q15.75,4.0301098,15.7518,4.0601651Q15.7593,4.18455,15.7971,4.30329Q15.8349,4.422031,15.9007,4.5278659999999995Q15.9665,4.633701,16.0562,4.720157Q16.145899999999997,4.8066130000000005,16.2541,4.868402L16.2547,4.868701Q16.696199999999997,5.12084,17.1044,5.4235299999999995Q17.8018,5.94057,18.3796,6.58669Q20.5,8.95809,20.5,12.12275Q20.5,15.5889,18.015,18.041800000000002Q15.5246,20.5,12,20.5Q8.47539,20.5,5.98498,18.041800000000002Q3.5,15.5889,3.5,12.12275Q3.5,8.95807,5.62045,6.58666Q6.1982099999999996,5.94057,6.89556,5.42356Q7.30391,5.1207899999999995,7.74549,4.868611L7.74586,4.868402Q7.9186,4.769769,8.04044,4.612541Q8.162279999999999,4.455313,8.214680000000001,4.263426Q8.25,4.134081,8.25,3.999999999999999Q8.25,3.9866228,8.24964,3.9732504Q8.24292,3.722216,8.118400000000001,3.504139Q8.05282,3.389285,7.95963,3.295429Q7.86645,3.201573,7.75207,3.13517Q7.63768,3.0687670000000002,7.50997,3.034384Q7.38226,3,7.25,3Q7.22918,3,7.20839,3.0008660000000003Q6.96536,3.010988,6.75414,3.131598L6.75407,3.131635L6.7533,3.132079Q6.20833,3.443324,5.70444,3.816946Q4.84328,4.455395,4.12955,5.25354Q1.5,8.1943,1.5000010000000001,12.12275Q1.5000010000000001,14.2358,2.327391,16.1667Q3.125673,18.029600000000002,4.5799900000000004,19.4652Q6.03296,20.8993,7.9169,21.6859Q9.866859999999999,22.5,12,22.5Q14.1331,22.5,16.0831,21.6859Q17.967,20.8993,19.42,19.4652Q20.8743,18.029600000000002,21.6726,16.1667Q22.5,14.2358,22.5,12.12275Q22.5,8.19433,19.8704,5.25351Q19.1567,4.455395,18.2956,3.816978Q17.792099999999998,3.443676,17.247700000000002,3.13267L17.2462,3.131783Z" fill-rule="evenodd" fill="#000000" fill-opacity="0.6000000238418579"/></g><g><path d="M11,2L11,12Q11,12.0985,11.019214999999999,12.1951Q11.03843,12.2917,11.076121,12.3827Q11.113812,12.4737,11.16853,12.5556Q11.223249,12.6375,11.292893,12.7071Q11.362537,12.7767,11.44443,12.8315Q11.526322,12.8862,11.617317,12.9239Q11.708311,12.9616,11.80491,12.9808Q11.9015086,13,12,13Q12.0984914,13,12.19509,12.9808Q12.291689,12.9616,12.382683,12.9239Q12.473678,12.8862,12.55557,12.8315Q12.637463,12.7767,12.707107,12.7071Q12.776751,12.6375,12.83147,12.5556Q12.886188,12.4737,12.923879,12.3827Q12.96157,12.2917,12.980785000000001,12.1951Q13,12.0985,13,12L13,2Q13,1.9015086,12.980785000000001,1.80491Q12.96157,1.7083110000000001,12.923879,1.617317Q12.886188,1.526322,12.83147,1.44443Q12.776751,1.362537,12.707107,1.2928929999999998Q12.637463,1.223249,12.55557,1.16853Q12.473678,1.113812,12.382683,1.076121Q12.291689,1.03843,12.19509,1.019215Q12.0984914,1,12,1Q11.9015086,1,11.80491,1.019215Q11.708311,1.03843,11.617317,1.076121Q11.526322,1.113812,11.44443,1.16853Q11.362537,1.223249,11.292893,1.2928929999999998Q11.223249,1.362537,11.16853,1.44443Q11.113812,1.526322,11.076121,1.617317Q11.03843,1.7083110000000001,11.019214999999999,1.80491Q11,1.9015086,11,2Z" fill-rule="evenodd" fill="#000000" fill-opacity="0.6000000238418579"/></g></g></svg>