<svg xmlns="http://www.w3.org/2000/svg" xmlns:xlink="http://www.w3.org/1999/xlink" fill="none" version="1.1" width="24" height="24" viewBox="0 0 24 24"><defs><clipPath id="master_svg0_22_1617"><rect x="24" y="24" width="24" height="24" rx="0"/></clipPath></defs><g transform="matrix(-1,0,0,-1,48,48)" clip-path="url(#master_svg0_22_1617)"><g><path d="M35.29289,32.292893C35.68342,31.9023689,36.31658,31.9023689,36.70711,32.292893C36.70711,32.292893,42.7071,38.29289,42.7071,38.29289C43.0976,38.68342,43.0976,39.31658,42.7071,39.70711C42.3166,40.09763,41.6834,40.09763,41.2929,39.70711C41.2929,39.70711,36,34.41421,36,34.41421C36,34.41421,30.70711,39.70711,30.70711,39.70711C30.316580000000002,40.09763,29.683417,40.09763,29.292893,39.70711C28.9023689,39.31658,28.9023689,38.68342,29.292893,38.29289C29.292893,38.29289,35.29289,32.292893,35.29289,32.292893C35.29289,32.292893,35.29289,32.292893,35.29289,32.292893Z" fill-rule="evenodd" fill="#000000" fill-opacity="0.6000000238418579"/></g></g></svg>